<svg width="12" height="12" viewBox="0 0 12 12" fill="none" xmlns="http://www.w3.org/2000/svg">
<path d="M6 0C4.4087 0 2.88258 0.632142 1.75736 1.75736C0.632142 2.88258 0 4.4087 0 6C0 7.5913 0.632142 9.11742 1.75736 10.2426C2.88258 11.3679 4.4087 12 6 12C7.5913 12 9.11742 11.3679 10.2426 10.2426C11.3679 9.11742 12 7.5913 12 6C12 4.4087 11.3679 2.88258 10.2426 1.75736C9.11742 0.632142 7.5913 0 6 0ZM9.33333 6.66667H6.66667V9.33333H5.33333V6.66667H2.66667V5.33333H5.33333V2.66667H6.66667V5.33333H9.33333V6.66667Z" fill="#003EDC"/>
</svg>
