<svg width="13" height="21" viewBox="0 0 13 21" fill="none" xmlns="http://www.w3.org/2000/svg">
<path d="M3.94399 10.0404L11.2332 2.90228L11.2332 2.90224C11.5014 2.63957 11.654 2.28109 11.654 1.90507C11.654 1.52904 11.5014 1.17056 11.2332 0.907895C10.9654 0.645572 10.6043 0.5 10.23 0.5C9.85559 0.5 9.49453 0.645572 9.22672 0.907894L0.921691 9.04279C0.921647 9.04283 0.921603 9.04288 0.921559 9.04292C0.788644 9.17282 0.682621 9.32768 0.610078 9.49892C0.5375 9.67025 0.5 9.85428 0.5 10.0404C0.5 10.2265 0.5375 10.4106 0.610078 10.5819C0.682619 10.7531 0.788637 10.908 0.921549 11.0379C0.921596 11.0379 0.921644 11.038 0.921691 11.038L9.22672 19.1729C9.49453 19.4352 9.85559 19.5808 10.23 19.5808C10.6043 19.5808 10.9654 19.4352 11.2332 19.1729C11.5014 18.9102 11.654 18.5518 11.654 18.1757C11.654 17.7997 11.5014 17.4412 11.2332 17.1786L11.2332 17.1785L3.94399 10.0404Z" fill="white" stroke="white"/>
</svg>
