<svg width="12" height="9" viewBox="0 0 12 9" fill="none" xmlns="http://www.w3.org/2000/svg">
<path d="M7.60429 2.06509H7.50429V2.16509V3.10849V3.20849H7.60429H9.79928V6.9566H2.20072V3.20849H5.46797V3.3066C5.46797 3.46364 5.54088 3.61047 5.66409 3.71607C5.78682 3.82126 5.9504 3.8783 6.11833 3.8783C6.28626 3.8783 6.44983 3.82126 6.57257 3.71607C6.69577 3.61047 6.76868 3.46364 6.76868 3.3066V1.4717C6.76868 1.31466 6.69577 1.16783 6.57257 1.06223C6.44983 0.957039 6.28626 0.9 6.11833 0.9C5.9504 0.9 5.78682 0.957039 5.66409 1.06223C5.54088 1.16783 5.46797 1.31466 5.46797 1.4717V2.06509H1.55036C1.38243 2.06509 1.21885 2.12213 1.09612 2.22732C0.972912 2.33292 0.9 2.47975 0.9 2.63679V7.5283C0.9 7.68534 0.972911 7.83217 1.09612 7.93777C1.21885 8.04296 1.38243 8.1 1.55036 8.1H10.4496C10.6176 8.1 10.7811 8.04296 10.9039 7.93777C11.0271 7.83217 11.1 7.68534 11.1 7.5283V2.63679C11.1 2.47975 11.0271 2.33292 10.9039 2.22732C10.7811 2.12213 10.6176 2.06509 10.4496 2.06509H7.60429Z" fill="#545454" stroke="black" stroke-width="0.2"/>
</svg>
