<svg width="18" height="15" viewBox="0 0 18 15" fill="none" xmlns="http://www.w3.org/2000/svg">
<path d="M12.1366 0.333332C12.6008 0.333348 13.0559 0.46261 13.4507 0.70664C13.8456 0.950669 14.1648 1.29983 14.3724 1.715L15.5249 4.01917C15.7283 3.93583 15.9308 3.85167 16.1274 3.75417C16.3252 3.65537 16.5542 3.6392 16.7639 3.70922C16.9737 3.77923 17.147 3.92969 17.2458 4.1275C17.3446 4.32531 17.3607 4.55426 17.2907 4.76399C17.2207 4.97371 17.0702 5.14704 16.8724 5.24583C16.4608 5.45083 16.2724 5.51417 16.2724 5.51417L17.0691 7.10833C17.2433 7.45583 17.3333 7.83833 17.3333 8.22667V10.3333C17.3333 10.6851 17.259 11.0328 17.1154 11.3539C16.9718 11.675 16.7621 11.9622 16.4999 12.1967V13.25C16.4999 13.5815 16.3682 13.8995 16.1338 14.1339C15.8994 14.3683 15.5815 14.5 15.2499 14.5C14.9184 14.5 14.6005 14.3683 14.3661 14.1339C14.1316 13.8995 13.9999 13.5815 13.9999 13.25V12.8333H3.99994V13.25C3.99994 13.5815 3.86824 13.8995 3.63382 14.1339C3.3994 14.3683 3.08146 14.5 2.74994 14.5C2.41842 14.5 2.10048 14.3683 1.86606 14.1339C1.63163 13.8995 1.49994 13.5815 1.49994 13.25V12.1967C0.988272 11.7383 0.666605 11.0733 0.666605 10.3333V8.22667C0.666761 7.83871 0.757202 7.45612 0.930772 7.10917L1.72744 5.51417C1.52553 5.43062 1.32601 5.34142 1.12911 5.24667C1.03088 5.19793 0.943237 5.13029 0.871201 5.04763C0.799165 4.96496 0.744151 4.86889 0.709314 4.76492C0.674477 4.66095 0.660501 4.55112 0.668188 4.44174C0.675874 4.33236 0.705071 4.22557 0.754106 4.1275C0.854918 3.93056 1.02922 3.78124 1.23929 3.71184C1.44936 3.64244 1.67832 3.65854 1.87661 3.75667C2.07327 3.85111 2.27272 3.93861 2.47494 4.01917L3.62744 1.715C3.83509 1.29983 4.15424 0.950669 4.54914 0.70664C4.94403 0.46261 5.39906 0.333348 5.86327 0.333332H12.1366ZM14.6949 6.08667C13.2783 6.53417 11.2624 7 8.99994 7C6.73744 7 4.72161 6.53333 3.30494 6.08667L2.42161 7.85333C2.36353 7.96921 2.33328 8.09704 2.33327 8.22667V10.3333C2.33327 10.5543 2.42107 10.7663 2.57735 10.9226C2.73363 11.0789 2.94559 11.1667 3.16661 11.1667H14.8333C15.0543 11.1667 15.2662 11.0789 15.4225 10.9226C15.5788 10.7663 15.6666 10.5543 15.6666 10.3333V8.22667C15.6665 8.09733 15.6362 7.96979 15.5783 7.85417L14.6949 6.08667ZM5.24994 7.83333C5.58146 7.83333 5.8994 7.96503 6.13382 8.19945C6.36824 8.43387 6.49994 8.75181 6.49994 9.08333C6.49994 9.41485 6.36824 9.7328 6.13382 9.96722C5.8994 10.2016 5.58146 10.3333 5.24994 10.3333C4.91842 10.3333 4.60048 10.2016 4.36606 9.96722C4.13163 9.7328 3.99994 9.41485 3.99994 9.08333C3.99994 8.75181 4.13163 8.43387 4.36606 8.19945C4.60048 7.96503 4.91842 7.83333 5.24994 7.83333ZM12.7499 7.83333C13.0815 7.83333 13.3994 7.96503 13.6338 8.19945C13.8682 8.43387 13.9999 8.75181 13.9999 9.08333C13.9999 9.41485 13.8682 9.7328 13.6338 9.96722C13.3994 10.2016 13.0815 10.3333 12.7499 10.3333C12.4184 10.3333 12.1005 10.2016 11.8661 9.96722C11.6316 9.7328 11.4999 9.41485 11.4999 9.08333C11.4999 8.75181 11.6316 8.43387 11.8661 8.19945C12.1005 7.96503 12.4184 7.83333 12.7499 7.83333ZM12.1366 2H5.86327C5.70855 2.00008 5.55691 2.04323 5.42533 2.12463C5.29375 2.20602 5.18743 2.32243 5.11827 2.46083L4.05994 4.575C5.34994 4.9625 7.08827 5.33333 8.99994 5.33333C10.9116 5.33333 12.6499 4.9625 13.9391 4.575L12.8816 2.46083C12.8124 2.32243 12.7061 2.20602 12.5745 2.12463C12.443 2.04323 12.2913 2.00008 12.1366 2Z" fill="#6750A4"/>
</svg>
