<svg width="15" height="18" viewBox="0 0 15 18" fill="none" xmlns="http://www.w3.org/2000/svg">
<path d="M1.66667 9.89189L2.91667 6.24324H12.0833L13.3333 9.89189M12.0833 13.9459C11.7518 13.9459 11.4339 13.8178 11.1995 13.5897C10.965 13.3616 10.8333 13.0523 10.8333 12.7297C10.8333 12.4072 10.965 12.0978 11.1995 11.8697C11.4339 11.6417 11.7518 11.5135 12.0833 11.5135C12.4149 11.5135 12.7328 11.6417 12.9672 11.8697C13.2016 12.0978 13.3333 12.4072 13.3333 12.7297C13.3333 13.0523 13.2016 13.3616 12.9672 13.5897C12.7328 13.8178 12.4149 13.9459 12.0833 13.9459ZM2.91667 13.9459C2.58515 13.9459 2.2672 13.8178 2.03278 13.5897C1.79836 13.3616 1.66667 13.0523 1.66667 12.7297C1.66667 12.4072 1.79836 12.0978 2.03278 11.8697C2.2672 11.6417 2.58515 11.5135 2.91667 11.5135C3.24819 11.5135 3.56613 11.6417 3.80055 11.8697C4.03497 12.0978 4.16667 12.4072 4.16667 12.7297C4.16667 13.0523 4.03497 13.3616 3.80055 13.5897C3.56613 13.8178 3.24819 13.9459 2.91667 13.9459ZM13.2667 5.83784C13.1 5.36757 12.6333 5.02703 12.0833 5.02703H2.91667C2.36667 5.02703 1.9 5.36757 1.73333 5.83784L0 10.7027V17.1892C0 17.4042 0.0877973 17.6105 0.244078 17.7625C0.400358 17.9146 0.61232 18 0.833333 18H1.66667C1.88768 18 2.09964 17.9146 2.25592 17.7625C2.4122 17.6105 2.5 17.4042 2.5 17.1892V16.3784H12.5V17.1892C12.5 17.4042 12.5878 17.6105 12.7441 17.7625C12.9004 17.9146 13.1123 18 13.3333 18H14.1667C14.3877 18 14.5996 17.9146 14.7559 17.7625C14.9122 17.6105 15 17.4042 15 17.1892V10.7027M3.33333 3.40541C3.66485 3.40541 3.9828 3.27727 4.21722 3.04918C4.45164 2.8211 4.58333 2.51175 4.58333 2.18919C4.58333 1.37838 3.33333 0 3.33333 0C3.33333 0 2.08333 1.37838 2.08333 2.18919C2.08333 2.51175 2.21503 2.8211 2.44945 3.04918C2.68387 3.27727 3.00181 3.40541 3.33333 3.40541ZM7.5 3.40541C7.83152 3.40541 8.14946 3.27727 8.38388 3.04918C8.6183 2.8211 8.75 2.51175 8.75 2.18919C8.75 1.37838 7.5 0 7.5 0C7.5 0 6.25 1.37838 6.25 2.18919C6.25 2.51175 6.3817 2.8211 6.61612 3.04918C6.85054 3.27727 7.16848 3.40541 7.5 3.40541ZM11.6667 3.40541C11.9982 3.40541 12.3161 3.27727 12.5505 3.04918C12.785 2.8211 12.9167 2.51175 12.9167 2.18919C12.9167 1.37838 11.6667 0 11.6667 0C11.6667 0 10.4167 1.37838 10.4167 2.18919C10.4167 2.51175 10.5484 2.8211 10.7828 3.04918C11.0172 3.27727 11.3351 3.40541 11.6667 3.40541Z" fill="#545454"/>
</svg>
