<svg width="20" height="20" viewBox="0 0 20 20" fill="none" xmlns="http://www.w3.org/2000/svg">
<path d="M2.22222 10.991L3.88889 6.93694H16.1111L17.7778 10.991M16.1111 15.4955C15.6691 15.4955 15.2452 15.3531 14.9326 15.0997C14.62 14.8463 14.4444 14.5025 14.4444 14.1441C14.4444 13.7857 14.62 13.442 14.9326 13.1886C15.2452 12.9352 15.6691 12.7928 16.1111 12.7928C16.5531 12.7928 16.9771 12.9352 17.2896 13.1886C17.6022 13.442 17.7778 13.7857 17.7778 14.1441C17.7778 14.5025 17.6022 14.8463 17.2896 15.0997C16.9771 15.3531 16.5531 15.4955 16.1111 15.4955ZM3.88889 15.4955C3.44686 15.4955 3.02294 15.3531 2.71038 15.0997C2.39782 14.8463 2.22222 14.5025 2.22222 14.1441C2.22222 13.7857 2.39782 13.442 2.71038 13.1886C3.02294 12.9352 3.44686 12.7928 3.88889 12.7928C4.33092 12.7928 4.75484 12.9352 5.0674 13.1886C5.37996 13.442 5.55556 13.7857 5.55556 14.1441C5.55556 14.5025 5.37996 14.8463 5.0674 15.0997C4.75484 15.3531 4.33092 15.4955 3.88889 15.4955ZM17.6889 6.48649C17.4667 5.96396 16.8444 5.58559 16.1111 5.58559H3.88889C3.15556 5.58559 2.53333 5.96396 2.31111 6.48649L0 11.8919V19.0991C0 19.338 0.117063 19.5672 0.325437 19.7361C0.533811 19.9051 0.816426 20 1.11111 20H2.22222C2.51691 20 2.79952 19.9051 3.0079 19.7361C3.21627 19.5672 3.33333 19.338 3.33333 19.0991V18.1982H16.6667V19.0991C16.6667 19.338 16.7837 19.5672 16.9921 19.7361C17.2005 19.9051 17.4831 20 17.7778 20H18.8889C19.1836 20 19.4662 19.9051 19.6746 19.7361C19.8829 19.5672 20 19.338 20 19.0991V11.8919M4.44444 3.78378C4.88647 3.78378 5.3104 3.64141 5.62296 3.38798C5.93552 3.13455 6.11111 2.79083 6.11111 2.43243C6.11111 1.53153 4.44444 0 4.44444 0C4.44444 0 2.77778 1.53153 2.77778 2.43243C2.77778 2.79083 2.95337 3.13455 3.26593 3.38798C3.57849 3.64141 4.00242 3.78378 4.44444 3.78378ZM10 3.78378C10.442 3.78378 10.866 3.64141 11.1785 3.38798C11.4911 3.13455 11.6667 2.79083 11.6667 2.43243C11.6667 1.53153 10 0 10 0C10 0 8.33333 1.53153 8.33333 2.43243C8.33333 2.79083 8.50893 3.13455 8.82149 3.38798C9.13405 3.64141 9.55797 3.78378 10 3.78378ZM15.5556 3.78378C15.9976 3.78378 16.4215 3.64141 16.7341 3.38798C17.0466 3.13455 17.2222 2.79083 17.2222 2.43243C17.2222 1.53153 15.5556 0 15.5556 0C15.5556 0 13.8889 1.53153 13.8889 2.43243C13.8889 2.79083 14.0645 3.13455 14.377 3.38798C14.6896 3.64141 15.1135 3.78378 15.5556 3.78378Z" fill="#545454"/>
</svg>
