<svg width="18" height="18" viewBox="0 0 18 18" fill="none" xmlns="http://www.w3.org/2000/svg">
<path d="M13.6043 11.0651H13.5043V11.1651V12.1085V12.2085H13.6043H15.7993V15.9566H8.20072V12.2085H11.468V12.3066C11.468 12.4636 11.5409 12.6105 11.6641 12.7161C11.7868 12.8213 11.9504 12.8783 12.1183 12.8783C12.2863 12.8783 12.4498 12.8213 12.5726 12.7161C12.6958 12.6105 12.7687 12.4636 12.7687 12.3066V10.4717C12.7687 10.3147 12.6958 10.1678 12.5726 10.0622C12.4498 9.95704 12.2863 9.9 12.1183 9.9C11.9504 9.9 11.7868 9.95704 11.6641 10.0622C11.5409 10.1678 11.468 10.3147 11.468 10.4717V11.0651H7.55036C7.38243 11.0651 7.21885 11.1221 7.09612 11.2273C6.97291 11.3329 6.9 11.4798 6.9 11.6368V16.5283C6.9 16.6853 6.97291 16.8322 7.09612 16.9378C7.21885 17.043 7.38243 17.1 7.55036 17.1H16.4496C16.6176 17.1 16.7811 17.043 16.9039 16.9378C17.0271 16.8322 17.1 16.6853 17.1 16.5283V11.6368C17.1 11.4798 17.0271 11.3329 16.9039 11.2273C16.7811 11.1221 16.6176 11.0651 16.4496 11.0651H13.6043Z" fill="#545454" stroke="black" stroke-width="0.2"/>
<path d="M2.15476 9.45309L2.15476 9.45307L1.00002 11.4631H0.850018V11.4634V14.4911C0.850018 14.5783 0.867787 14.6646 0.902175 14.7449C0.936558 14.8252 0.986813 14.8978 1.04982 14.9588C1.11282 15.0197 1.18734 15.0678 1.269 15.1005C1.35066 15.1332 1.43801 15.15 1.52612 15.15C1.61423 15.15 1.70158 15.1332 1.78324 15.1005C1.8649 15.0678 1.93942 15.0197 2.00242 14.9588C2.06543 14.8978 2.11568 14.8252 2.15006 14.7449C2.18445 14.6646 2.20222 14.5783 2.20222 14.4911V11.4631H2.20226L2.20218 11.4596C2.1983 11.2918 2.24511 11.1262 2.33743 10.983C2.42976 10.8398 2.5638 10.725 2.72369 10.6535C4.30357 9.94767 6.02447 9.58553 7.76507 9.59275L7.76586 9.59275C8.53236 9.59188 9.29678 9.66048 10.0491 9.79741C10.4545 9.87118 10.8461 9.56767 10.8461 9.14524C10.8461 8.83945 10.6327 8.56994 10.3269 8.5127C7.57161 7.99696 4.71466 8.32365 2.15476 9.45309ZM5.63826 7.6503C6.2684 8.05758 7.00874 8.27468 7.76569 8.27468C8.78061 8.27468 9.75492 7.88473 10.4741 7.18911C11.1933 6.49333 11.5984 5.54855 11.5984 4.56234C11.5984 3.82698 11.373 3.10856 10.9512 2.49796C10.5294 1.88742 9.93055 1.4123 9.23079 1.13193C8.53107 0.85157 7.76139 0.778286 7.01889 0.921153C6.27636 1.06402 5.59365 1.41679 5.05733 1.93557C4.52096 2.45441 4.15509 3.11607 4.00681 3.83715C3.85852 4.55827 3.93468 5.30568 4.22542 5.98464C4.51612 6.66353 5.00807 7.24298 5.63826 7.6503ZM6.38568 2.61333C6.79375 2.34958 7.274 2.20853 7.76569 2.20853C8.09211 2.20853 8.41523 2.27072 8.71655 2.39146C9.01787 2.51218 9.29133 2.68901 9.52145 2.91161C9.75156 3.1342 9.93382 3.39819 10.0581 3.68835C10.1823 3.9785 10.2462 4.28931 10.2462 4.60305C10.2462 5.07552 10.1014 5.5378 9.82946 5.93147C9.55749 6.3252 9.17039 6.63281 8.71655 6.81465C8.26268 6.99651 7.76298 7.04416 7.28085 6.95139C6.79873 6.85863 6.35653 6.62977 6.00993 6.2945C5.66338 5.95927 5.42797 5.53279 5.33265 5.06925C5.23734 4.60576 5.28621 4.12528 5.47331 3.68835C5.66043 3.25136 5.97767 2.87705 6.38568 2.61333ZM11.126 13.4302C10.8464 13.4302 10.6197 13.6568 10.6197 13.9364C10.6197 14.216 10.8464 14.4426 11.126 14.4426H13.6438C13.9234 14.4426 14.15 14.216 14.15 13.9364C14.15 13.6568 13.9234 13.4302 13.6438 13.4302H11.126Z" fill="#545454" stroke="black" stroke-width="0.3"/>
</svg>