<svg width="16" height="16" viewBox="0 0 16 16" fill="none" xmlns="http://www.w3.org/2000/svg">
<path d="M14.6667 1.50036H12.5V0.500344C12.5001 0.367733 12.4475 0.240518 12.3538 0.146685C12.2601 0.0528528 12.1329 8.85261e-05 12.0003 1.18725e-07C11.8677 -8.82886e-05 11.7405 0.0525065 11.6467 0.146214C11.5529 0.239922 11.5001 0.367066 11.5 0.499677V1.50036H8.5V0.500344C8.50004 0.434682 8.48715 0.369654 8.46207 0.308973C8.43698 0.248292 8.40019 0.193147 8.35379 0.146685C8.30739 0.100224 8.2523 0.063357 8.19165 0.0381887C8.131 0.0130204 8.06599 4.38861e-05 8.00033 1.11274e-07C7.86773 -8.82961e-05 7.74051 0.0525064 7.64668 0.146214C7.55285 0.239922 7.50009 0.367066 7.5 0.499677V1.50036H4.5V0.500344C4.50004 0.434682 4.48715 0.369654 4.46207 0.308973C4.43698 0.248292 4.40019 0.193147 4.35379 0.146685C4.30739 0.100224 4.2523 0.063357 4.19165 0.0381887C4.131 0.0130204 4.06599 4.38861e-05 4.00033 1.11274e-07C3.86773 -8.82961e-05 3.74051 0.0525064 3.64668 0.146214C3.55285 0.239922 3.50009 0.367066 3.5 0.499677V1.50036H1.33333C0.979827 1.50036 0.640789 1.64075 0.39076 1.89066C0.140731 2.14057 0.000176753 2.47955 0 2.83306V14.6666C0 15.0203 0.140476 15.3594 0.390524 15.6095C0.640573 15.8595 0.979711 16 1.33333 16H14.6667C15.0203 16 15.3594 15.8595 15.6095 15.6095C15.8595 15.3594 16 15.0203 16 14.6666V2.83306C15.9998 2.47955 15.8593 2.14057 15.6092 1.89066C15.3592 1.64075 15.0202 1.50036 14.6667 1.50036ZM15 14.6673C15 14.7556 14.965 14.8403 14.9026 14.9028C14.8402 14.9653 14.7556 15.0005 14.6673 15.0006H1.33333C1.24493 15.0006 1.16014 14.9655 1.09763 14.903C1.03512 14.8405 1 14.7557 1 14.6673V2.83373C1.00018 2.74543 1.03537 2.66082 1.09787 2.59845C1.16036 2.53608 1.24504 2.50105 1.33333 2.50105H3.5V3.50107C3.49991 3.63368 3.55251 3.7609 3.64621 3.85473C3.73992 3.94856 3.86706 4.00133 3.99967 4.00142C4.13228 4.00151 4.25949 3.94891 4.35332 3.8552C4.44715 3.7615 4.49991 3.63435 4.5 3.50174V2.50105H7.5V3.50107C7.49991 3.63368 7.55251 3.7609 7.64621 3.85473C7.73992 3.94856 7.86706 4.00133 7.99967 4.00142C8.13228 4.00151 8.25949 3.94891 8.35332 3.8552C8.44715 3.7615 8.49991 3.63435 8.5 3.50174V2.50105H11.5V3.50107C11.4999 3.63368 11.5525 3.7609 11.6462 3.85473C11.7399 3.94856 11.8671 4.00133 11.9997 4.00142C12.1323 4.00151 12.2595 3.94891 12.3533 3.8552C12.4471 3.7615 12.4999 3.63435 12.5 3.50174V2.50105H14.6667C14.7548 2.50123 14.8394 2.53633 14.9017 2.59868C14.9641 2.66104 14.9992 2.74555 14.9993 2.83373L15 14.6673Z" fill="#545454"/>
<path d="M3.5 6H5.5V7.50003H3.5V6ZM3.5 8.50005H5.5V10.0001H3.5V8.50005ZM3.5 11.0001H5.5V12.5001H3.5V11.0001ZM7 11.0001H9V12.5001H7V11.0001ZM7 8.50005H9V10.0001H7V8.50005ZM7 6H9V7.50003H7V6ZM10.5 11.0001H12.5V12.5001H10.5V11.0001ZM10.5 8.50005H12.5V10.0001H10.5V8.50005ZM10.5 6H12.5V7.50003H10.5V6Z" fill="#545454"/>
</svg>
