<svg width="22" height="16" viewBox="0 0 22 16" fill="none" xmlns="http://www.w3.org/2000/svg">
<path d="M7 12C7 9.6 8.1 7.5 9.7 6H2L3.5 1.5H14.5L15.3 4C15.9 4 16.5 4.1 17 4.3L15.9 1C15.7 0.4 15.1 0 14.5 0H3.5C2.8 0 2.3 0.4 2.1 1L0 7V15C0 15.5 0.5 16 1 16H2C2.5 16 3 15.5 3 15V14H7.3C7.1 13.4 7 12.7 7 12ZM3.5 11C2.7 11 2 10.3 2 9.5C2 8.7 2.7 8 3.5 8C4.3 8 5 8.7 5 9.5C5 10.3 4.3 11 3.5 11ZM15 16V14H12V13H13C14.1 13 15 12.1 15 11V10C15 8.9 14.1 8 13 8H10V10H13V11H12C10.9 11 10 11.9 10 13V16M22 13H20V15H18V13H16V11H18V9H20V11H22V13Z" fill="#545454"/>
</svg>
