<svg width="25" height="25" viewBox="0 0 25 25" fill="none" xmlns="http://www.w3.org/2000/svg">
<path d="M24.1071 8.75C24.3439 8.75 24.571 8.6183 24.7385 8.38388C24.9059 8.14946 25 7.83152 25 7.5V2.5C25 1.83696 24.8119 1.20107 24.477 0.732233C24.1421 0.263392 23.6879 0 23.2143 0H1.78571C1.31211 0 0.85791 0.263392 0.523023 0.732233C0.188137 1.20107 0 1.83696 0 2.5V7.5C0 7.83152 0.0940686 8.14946 0.261512 8.38388C0.428955 8.6183 0.656057 8.75 0.892857 8.75C1.60326 8.75 2.28456 9.14509 2.78689 9.84835C3.28922 10.5516 3.57143 11.5054 3.57143 12.5C3.57143 13.4946 3.28922 14.4484 2.78689 15.1517C2.28456 15.8549 1.60326 16.25 0.892857 16.25C0.656057 16.25 0.428955 16.3817 0.261512 16.6161C0.0940686 16.8505 0 17.1685 0 17.5V22.5C0 23.163 0.188137 23.7989 0.523023 24.2678C0.85791 24.7366 1.31211 25 1.78571 25H23.2143C23.6879 25 24.1421 24.7366 24.477 24.2678C24.8119 23.7989 25 23.163 25 22.5V17.5C25 17.1685 24.9059 16.8505 24.7385 16.6161C24.571 16.3817 24.3439 16.25 24.1071 16.25C23.3967 16.25 22.7154 15.8549 22.2131 15.1517C21.7108 14.4484 21.4286 13.4946 21.4286 12.5C21.4286 11.5054 21.7108 10.5516 22.2131 9.84835C22.7154 9.14509 23.3967 8.75 24.1071 8.75ZM1.78571 18.625C2.7949 18.3381 3.70221 17.5716 4.35391 16.4553C5.00561 15.3391 5.36162 13.9417 5.36162 12.5C5.36162 11.0583 5.00561 9.66094 4.35391 8.54468C3.70221 7.42841 2.7949 6.66189 1.78571 6.375V2.5H8.03571V22.5H1.78571V18.625ZM23.2143 18.625V22.5H9.82143V2.5H23.2143V6.375C22.2051 6.66189 21.2978 7.42841 20.6461 8.54468C19.9944 9.66094 19.6384 11.0583 19.6384 12.5C19.6384 13.9417 19.9944 15.3391 20.6461 16.4553C21.2978 17.5716 22.2051 18.3381 23.2143 18.625Z" fill="#C80000"/>
</svg>
