<svg width="22" height="20" viewBox="0 0 22 20" fill="none" xmlns="http://www.w3.org/2000/svg">
<path d="M21.0004 2.5L18.5004 5M18.5004 5L16.0004 7.5M18.5004 5L21.0004 7.5M18.5004 5L16.0004 2.5M4.18037 13.296C2.92237 14.034 -0.374633 15.539 1.63337 17.422C2.61537 18.342 3.70737 19 5.08137 19H12.9194C14.2934 19 15.3864 18.342 16.3664 17.422C18.3754 15.539 15.0784 14.033 13.8204 13.296C12.3559 12.447 10.6932 11.9998 9.00037 11.9998C7.30758 11.9998 5.64483 12.447 4.18037 13.296ZM13.0004 5C13.0004 6.06087 12.5789 7.07828 11.8288 7.82843C11.0786 8.57857 10.0612 9 9.00037 9C7.9395 9 6.92209 8.57857 6.17194 7.82843C5.42179 7.07828 5.00037 6.06087 5.00037 5C5.00037 3.93913 5.42179 2.92172 6.17194 2.17157C6.92209 1.42143 7.9395 1 9.00037 1C10.0612 1 11.0786 1.42143 11.8288 2.17157C12.5789 2.92172 13.0004 3.93913 13.0004 5Z" stroke="#545454" stroke-width="2" stroke-linecap="round" stroke-linejoin="round"/>
</svg>
