<svg width="11" height="17" viewBox="0 0 11 17" fill="none" xmlns="http://www.w3.org/2000/svg">
<path d="M11 4.12926V5.3608C11 5.47348 10.9633 5.56605 10.8898 5.63849C10.8163 5.71094 10.7223 5.74716 10.608 5.74716H8.55011C8.36229 6.90625 7.83556 7.84801 6.96993 8.57244C6.10431 9.29688 4.97736 9.73958 3.58909 9.90057C4.95286 11.3333 6.82702 13.4905 9.21158 16.3722C9.32591 16.5009 9.34224 16.6378 9.26058 16.7827C9.19525 16.9276 9.07684 17 8.90534 17H6.5167C6.38604 17 6.28396 16.9517 6.21047 16.8551C3.71158 13.901 1.67817 11.603 0.110245 9.96094C0.0367483 9.88849 0 9.79995 0 9.69531V8.16193C0 8.05729 0.0387899 7.96674 0.11637 7.89027C0.19395 7.8138 0.28582 7.77557 0.391982 7.77557H1.76392C2.84187 7.77557 3.70954 7.60251 4.36693 7.25639C5.02431 6.91027 5.44284 6.4072 5.62249 5.74716H0.391982C0.277654 5.74716 0.183742 5.71094 0.110245 5.63849C0.0367483 5.56605 0 5.47348 0 5.3608V4.12926C0 4.01657 0.0367483 3.92401 0.110245 3.85156C0.183742 3.77912 0.277654 3.7429 0.391982 3.7429H5.451C4.98552 2.83333 3.89124 2.37855 2.16815 2.37855H0.391982C0.28582 2.37855 0.19395 2.34032 0.11637 2.26385C0.0387899 2.18738 0 2.09683 0 1.99219V0.386364C0 0.273674 0.0367483 0.181108 0.110245 0.108665C0.183742 0.0362216 0.277654 0 0.391982 0H10.5835C10.6978 0 10.7918 0.0362216 10.8653 0.108665C10.9388 0.181108 10.9755 0.273674 10.9755 0.386364V1.6179C10.9755 1.73059 10.9388 1.82315 10.8653 1.8956C10.7918 1.96804 10.6978 2.00426 10.5835 2.00426H7.7294C8.11321 2.49527 8.37454 3.07481 8.51336 3.7429H10.608C10.7223 3.7429 10.8163 3.77912 10.8898 3.85156C10.9633 3.92401 11 4.01657 11 4.12926Z" fill="#545454"/>
</svg>
